<?xml version="1.0" encoding="UTF-8" standalone="no"?><svg xmlns="http://www.w3.org/2000/svg" width="335" height="164" viewBox="0 0 335 164">
  <g id="LOGO" transform="translate(-1855.303 -295)">
    <g id="l1" transform="translate(1854.836 304.371)">
      <path id="Polygon_2" data-name="Polygon 2" d="M76.5,0,153,107H0Z" transform="translate(0.468 -0.371)" fill="#00a9e0"/>
      <path id="Polygon_3" data-name="Polygon 3" d="M76.5,0,153,80H0Z" transform="translate(0.468 27.629)" fill="#fff"/>
    </g>
    <g id="l1-2" data-name="l1" transform="translate(2037.25 295)">
      <path id="Polygon_2-2" data-name="Polygon 2" d="M76.5,0,153,107H0Z" transform="translate(0.053)" fill="#00a9e0"/>
      <path id="Polygon_3-2" data-name="Polygon 3" d="M76.5,0,153,80H0Z" transform="translate(0.053 28)" fill="#fff"/>
    </g>
    <g id="l2" transform="translate(1909.185 316.24)">
      <g id="Polygon_2-3" data-name="Polygon 2" transform="translate(0.118 -0.24)" fill="#00a9e0">
        <path d="M 227.9591369628906 142.5 L 1.040862321853638 142.5 L 114.5 0.7999415397644043 L 227.9591369628906 142.5 Z" stroke="none"/>
        <path d="M 114.5 1.59991455078125 L 2.081741333007813 142 L 226.9182586669922 142 L 114.5 1.59991455078125 M 114.5 0 L 229 143 L 0 143 L 114.5 0 Z" stroke="none" fill="#707070"/>
      </g>
      <path id="Polygon_3-3" data-name="Polygon 3" d="M114.5,0,229,109H0Z" transform="translate(1.118 33.76)" fill="#fff"/>
    </g>
  </g>
</svg>
